{"glyphs":{"0":{"ha":639,"x_min":0,"x_max":0,"o":"m 611 238 l 611 735 b 318 994 611 901 506 994 b 28 735 132 994 28 901 l 28 238 b 318 -22 28 71 131 -22 b 611 238 506 -22 611 71 z m 97 238 l 97 593 b 542 238 238 469 542 440 b 318 39 542 110 461 39 b 97 238 175 39 97 110 z m 97 735 b 318 933 97 863 176 933 b 542 735 461 933 542 863 l 542 403 b 97 735 401 544 97 571 z "},"1":{"ha":335,"x_min":0,"x_max":0,"o":"m 238 735 l 238 0 l 307 0 l 307 735 b 14 994 307 901 201 994 l 14 933 b 238 735 157 933 238 863 z "},"2":{"ha":593,"x_min":0,"x_max":0,"o":"m 28 0 l 565 0 l 565 61 l 103 61 b 565 735 153 356 565 431 b 272 994 565 901 460 994 b 46 917 167 994 90 964 l 97 871 b 272 933 132 910 192 933 b 496 735 415 933 496 863 b 28 0 496 460 28 374 z "},"3":{"ha":560,"x_min":0,"x_max":0,"o":"m 17 917 l 68 871 b 242 933 106 911 165 933 b 410 814 350 933 410 890 b 242 694 410 738 350 694 l 207 694 l 207 633 l 242 633 b 463 435 383 633 463 563 l 463 238 b 242 39 463 110 383 39 b 64 101 164 39 101 60 l 14 56 b 242 -22 63 4 142 -22 b 532 238 428 -22 532 71 l 532 435 b 396 667 532 547 485 626 b 479 814 450 696 479 746 b 242 994 479 929 394 994 b 17 917 143 994 67 968 z "},"4":{"ha":653,"x_min":0,"x_max":0,"o":"m 542 538 l 542 0 l 611 0 l 611 972 l 542 972 l 542 725 b 321 526 542 597 463 526 b 97 725 178 526 97 597 l 97 972 l 28 972 l 28 725 b 321 465 28 558 133 465 b 542 538 418 465 492 490 z "},"5":{"ha":560,"x_min":0,"x_max":0,"o":"m 307 911 l 528 911 l 528 972 l 307 972 b 14 713 119 972 14 879 l 14 633 l 242 633 b 463 435 383 633 463 563 l 463 238 b 242 39 463 110 383 39 b 64 101 164 39 101 60 l 14 56 b 242 -22 63 4 142 -22 b 532 238 428 -22 532 71 l 532 435 b 242 694 532 601 428 694 l 83 694 l 83 713 b 307 911 83 840 164 911 z "},"6":{"ha":639,"x_min":0,"x_max":0,"o":"m 28 735 l 28 238 b 318 -22 28 71 131 -22 b 611 238 506 -22 611 71 l 611 457 b 318 717 611 624 506 717 b 97 629 213 717 140 686 l 97 735 b 321 933 97 863 178 933 b 496 871 399 933 458 913 l 546 917 b 321 994 497 968 421 994 b 28 735 133 994 28 901 z m 97 238 l 97 457 b 318 656 97 585 176 656 b 542 457 461 656 542 585 l 542 238 b 318 39 542 110 461 39 b 97 238 175 39 97 110 z "},"7":{"ha":535,"x_min":0,"x_max":0,"o":"m 426 726 l 151 0 l 226 0 l 497 713 b 344 972 547 846 524 972 l 14 972 l 14 911 l 333 911 b 426 726 468 911 465 829 z "},"8":{"ha":639,"x_min":0,"x_max":0,"o":"m 611 238 l 611 435 b 474 665 611 547 563 626 b 557 814 528 696 557 746 b 319 994 557 929 472 994 b 82 814 167 994 82 929 b 165 667 82 747 111 697 b 28 435 76 628 28 547 l 28 238 b 318 -22 28 71 131 -22 b 611 238 506 -22 611 71 z m 97 238 l 97 435 b 318 633 97 563 176 633 b 542 435 461 633 542 563 l 542 238 b 318 39 542 110 461 39 b 97 238 175 39 97 110 z m 151 814 b 319 933 151 890 211 933 b 488 814 428 933 488 890 b 319 694 488 738 428 694 b 151 814 211 694 151 738 z "},"9":{"ha":639,"x_min":0,"x_max":0,"o":"m 611 238 l 611 735 b 321 994 611 901 508 994 b 28 735 133 994 28 901 l 28 515 b 321 256 28 349 133 256 b 542 343 426 256 499 286 l 542 238 b 318 39 542 110 461 39 b 143 101 240 39 181 60 l 93 56 b 318 -22 142 4 218 -22 b 611 238 506 -22 611 71 z m 97 515 l 97 735 b 321 933 97 863 178 933 b 542 735 464 933 542 863 l 542 515 b 321 317 542 388 463 317 b 97 515 178 317 97 388 z "}," ":{"ha":278,"x_min":0,"x_max":0,"o":""}," ":{"ha":278,"x_min":0,"x_max":0,"o":""},"A":{"ha":611,"x_min":0,"x_max":0,"o":"m 306 994 b 235 914 275 994 247 964 l 14 0 l 83 0 l 236 633 l 375 633 l 528 0 l 597 0 l 376 914 b 306 994 364 964 338 994 z m 250 694 l 300 900 b 306 910 301 904 303 910 b 311 900 308 910 310 904 l 361 694 z "},"Á":{"ha":611,"x_min":0,"x_max":0,"o":"m 306 994 b 235 914 275 994 247 964 l 14 0 l 83 0 l 236 633 l 375 633 l 528 0 l 597 0 l 376 914 b 306 994 364 964 338 994 z m 247 1043 l 263 1029 l 371 1132 l 304 1179 z m 250 694 l 300 900 b 306 910 301 904 303 910 b 311 900 308 910 310 904 l 361 694 z "},"Â":{"ha":611,"x_min":0,"x_max":0,"o":"m 306 994 b 235 914 275 994 247 964 l 14 0 l 83 0 l 236 633 l 375 633 l 528 0 l 597 0 l 376 914 b 306 994 364 964 338 994 z m 196 1038 l 218 1038 l 306 1086 l 393 1038 l 415 1038 l 317 1172 l 294 1172 z m 250 694 l 300 900 b 306 910 301 904 303 910 b 311 900 308 910 310 904 l 361 694 z "},"Ä":{"ha":611,"x_min":0,"x_max":0,"o":"m 306 994 b 235 914 275 994 247 964 l 14 0 l 83 0 l 236 633 l 375 633 l 528 0 l 597 0 l 376 914 b 306 994 364 964 338 994 z m 204 1104 b 249 1060 204 1081 225 1060 b 293 1104 272 1060 293 1081 b 249 1149 293 1128 272 1149 b 204 1104 225 1149 204 1128 z m 250 694 l 300 900 b 306 910 301 904 303 910 b 311 900 308 910 310 904 l 361 694 z m 318 1104 b 363 1060 318 1081 339 1060 b 407 1104 386 1060 407 1081 b 363 1149 407 1128 386 1149 b 318 1104 339 1149 318 1128 z "},"À":{"ha":611,"x_min":0,"x_max":0,"o":"m 306 994 b 235 914 275 994 247 964 l 14 0 l 83 0 l 236 633 l 375 633 l 528 0 l 597 0 l 376 914 b 306 994 364 964 338 994 z m 239 1132 l 347 1029 l 363 1043 l 306 1179 z m 250 694 l 300 900 b 306 910 301 904 303 910 b 311 900 308 910 310 904 l 361 694 z "},"Å":{"ha":611,"x_min":0,"x_max":0,"o":"m 306 994 b 235 914 275 994 247 964 l 14 0 l 83 0 l 236 633 l 375 633 l 528 0 l 597 0 l 376 914 b 306 994 364 964 338 994 z m 229 1101 b 306 1025 229 1060 264 1025 b 382 1101 347 1025 382 1060 b 306 1178 382 1143 347 1178 b 229 1101 264 1178 229 1143 z m 250 694 l 300 900 b 306 910 301 904 303 910 b 311 900 308 910 310 904 l 361 694 z m 274 1101 b 306 1133 274 1118 288 1133 b 338 1101 324 1133 338 1118 b 306 1069 338 1083 324 1069 b 274 1101 288 1069 274 1083 z "},"Ã":{"ha":611,"x_min":0,"x_max":0,"o":"m 306 994 b 235 914 275 994 247 964 l 14 0 l 83 0 l 236 633 l 375 633 l 528 0 l 597 0 l 376 914 b 306 994 364 964 338 994 z m 213 1133 b 267 1056 213 1090 233 1056 b 340 1082 293 1056 324 1082 b 357 1058 353 1082 357 1075 l 415 1058 b 369 1132 415 1107 396 1132 b 286 1110 333 1132 308 1110 b 269 1133 275 1110 269 1117 z m 250 694 l 300 900 b 306 910 301 904 303 910 b 311 900 308 910 310 904 l 361 694 z "},"Æ":{"ha":1056,"x_min":0,"x_max":0,"o":"m 821 911 l 1042 911 l 1042 972 l 821 972 b 569 865 703 972 617 935 b 307 994 526 949 436 994 b 14 735 119 994 14 901 l 14 0 l 83 0 l 83 633 l 528 633 l 528 0 l 1042 0 l 1042 61 l 597 61 l 597 633 l 967 633 l 967 694 l 597 694 l 597 713 b 821 911 597 840 678 911 z m 83 694 l 83 735 b 307 933 83 863 164 933 b 528 735 449 933 528 863 l 528 694 z "},"B":{"ha":639,"x_min":0,"x_max":0,"o":"m 28 724 l 28 0 l 321 0 b 611 260 507 0 611 93 l 611 435 b 475 667 611 547 564 626 b 558 814 529 696 558 746 b 321 994 558 929 474 994 b 28 724 133 994 28 897 z m 97 61 l 97 633 l 321 633 b 542 435 463 633 542 563 l 542 260 b 321 61 542 132 463 61 z m 97 694 l 97 724 b 321 933 97 858 178 933 b 489 814 429 933 489 890 b 321 694 489 738 429 694 z "},"C":{"ha":560,"x_min":0,"x_max":0,"o":"m 321 -22 b 546 56 421 -22 497 4 l 496 101 b 321 39 458 60 399 39 b 97 238 178 39 97 110 l 97 735 b 321 933 97 863 178 933 b 496 871 399 933 458 913 l 546 917 b 321 994 497 968 421 994 b 28 735 133 994 28 901 l 28 238 b 321 -22 28 71 133 -22 z "},"Ç":{"ha":560,"x_min":0,"x_max":0,"o":"m 314 -142 l 283 -171 b 331 -190 299 -183 315 -190 b 403 -118 372 -190 403 -164 b 331 -47 403 -72 376 -47 l 331 -22 b 546 56 426 -21 499 6 l 496 101 b 321 39 458 60 399 39 b 97 238 178 39 97 110 l 97 735 b 321 933 97 863 178 933 b 496 871 399 933 458 913 l 546 917 b 321 994 497 968 421 994 b 28 735 133 994 28 901 l 28 238 b 288 -21 28 81 121 -11 l 288 -62 l 314 -94 b 331 -89 319 -90 325 -89 b 361 -118 350 -89 361 -100 b 331 -149 361 -137 350 -149 b 314 -142 326 -149 319 -146 z "},"D":{"ha":653,"x_min":0,"x_max":0,"o":"m 335 972 l 42 972 l 42 0 l 335 0 b 625 260 521 0 625 93 l 625 713 b 335 972 625 879 521 972 z m 111 61 l 111 911 l 335 911 b 556 713 476 911 556 840 l 556 260 b 335 61 556 132 476 61 z "},"Ð":{"ha":653,"x_min":0,"x_max":0,"o":"m 335 972 l 42 972 l 42 540 l 28 540 l 28 479 l 42 479 l 42 0 l 335 0 b 625 260 521 0 625 93 l 625 713 b 335 972 625 879 521 972 z m 111 61 l 111 479 l 429 479 l 429 540 l 111 540 l 111 911 l 335 911 b 556 713 476 911 556 840 l 556 260 b 335 61 556 132 476 61 z "},"E":{"ha":556,"x_min":0,"x_max":0,"o":"m 321 911 l 542 911 l 542 972 l 321 972 b 28 713 133 972 28 879 l 28 0 l 542 0 l 542 61 l 97 61 l 97 633 l 467 633 l 467 694 l 97 694 l 97 713 b 321 911 97 840 178 911 z "},"É":{"ha":556,"x_min":0,"x_max":0,"o":"m 321 911 l 542 911 l 542 972 l 321 972 b 28 713 133 972 28 879 l 28 0 l 542 0 l 542 61 l 97 61 l 97 633 l 467 633 l 467 694 l 97 694 l 97 713 b 321 911 97 840 178 911 z m 263 1043 l 278 1029 l 386 1132 l 319 1179 z "},"Ê":{"ha":556,"x_min":0,"x_max":0,"o":"m 321 911 l 542 911 l 542 972 l 321 972 b 28 713 133 972 28 879 l 28 0 l 542 0 l 542 61 l 97 61 l 97 633 l 467 633 l 467 694 l 97 694 l 97 713 b 321 911 97 840 178 911 z m 211 1038 l 233 1038 l 321 1086 l 408 1038 l 431 1038 l 332 1172 l 310 1172 z "},"Ë":{"ha":556,"x_min":0,"x_max":0,"o":"m 321 911 l 542 911 l 542 972 l 321 972 b 28 713 133 972 28 879 l 28 0 l 542 0 l 542 61 l 97 61 l 97 633 l 467 633 l 467 694 l 97 694 l 97 713 b 321 911 97 840 178 911 z m 219 1104 b 264 1060 219 1081 240 1060 b 308 1104 288 1060 308 1081 b 264 1149 308 1128 288 1149 b 219 1104 240 1149 219 1128 z m 333 1104 b 378 1060 333 1081 354 1060 b 422 1104 401 1060 422 1081 b 378 1149 422 1128 401 1149 b 333 1104 354 1149 333 1128 z "},"È":{"ha":556,"x_min":0,"x_max":0,"o":"m 321 911 l 542 911 l 542 972 l 321 972 b 28 713 133 972 28 879 l 28 0 l 542 0 l 542 61 l 97 61 l 97 633 l 467 633 l 467 694 l 97 694 l 97 713 b 321 911 97 840 178 911 z m 254 1132 l 363 1029 l 378 1043 l 321 1179 z "},"F":{"ha":556,"x_min":0,"x_max":0,"o":"m 321 911 l 542 911 l 542 972 l 321 972 b 28 713 133 972 28 879 l 28 0 l 97 0 l 97 633 l 467 633 l 467 694 l 97 694 l 97 713 b 321 911 97 840 178 911 z "},"G":{"ha":639,"x_min":0,"x_max":0,"o":"m 28 735 l 28 238 b 321 -22 28 71 133 -22 b 611 238 507 -22 611 71 l 611 694 l 404 694 l 404 633 l 542 633 l 542 238 b 321 39 542 110 463 39 b 97 238 178 39 97 110 l 97 735 b 321 933 97 863 178 933 b 496 871 399 933 458 913 l 546 917 b 321 994 497 968 421 994 b 28 735 133 994 28 901 z "},"H":{"ha":667,"x_min":0,"x_max":0,"o":"m 42 972 l 42 0 l 111 0 l 111 633 l 556 633 l 556 0 l 625 0 l 625 972 l 556 972 l 556 694 l 111 694 l 111 972 z "},"I":{"ha":181,"x_min":0,"x_max":0,"o":"m 56 972 l 56 0 l 125 0 l 125 972 z "},"Í":{"ha":181,"x_min":0,"x_max":0,"o":"m 56 972 l 56 0 l 125 0 l 125 972 z m 32 1043 l 47 1029 l 156 1132 l 89 1179 z "},"Î":{"ha":181,"x_min":0,"x_max":0,"o":"m 56 972 l 56 0 l 125 0 l 125 972 z m -19 1038 l 3 1038 l 90 1086 l 178 1038 l 200 1038 l 101 1172 l 79 1172 z "},"Ï":{"ha":181,"x_min":0,"x_max":0,"o":"m 56 972 l 56 0 l 125 0 l 125 972 z m -11 1104 b 33 1060 -11 1081 10 1060 b 78 1104 57 1060 78 1081 b 33 1149 78 1128 57 1149 b -11 1104 10 1149 -11 1128 z m 103 1104 b 147 1060 103 1081 124 1060 b 192 1104 171 1060 192 1081 b 147 1149 192 1128 171 1149 b 103 1104 124 1149 103 1128 z "},"Ì":{"ha":181,"x_min":0,"x_max":0,"o":"m 56 972 l 56 0 l 125 0 l 125 972 z m 24 1132 l 132 1029 l 147 1043 l 90 1179 z "},"J":{"ha":560,"x_min":0,"x_max":0,"o":"m 532 238 l 532 972 l 463 972 l 463 238 b 239 39 463 110 382 39 b 64 101 161 39 101 60 l 14 56 b 239 -22 63 4 139 -22 b 532 238 426 -22 532 71 z "},"K":{"ha":653,"x_min":0,"x_max":0,"o":"m 42 0 l 111 0 l 111 718 b 335 633 156 663 229 633 b 556 435 476 633 556 563 l 556 0 l 625 0 l 625 435 b 493 664 625 546 579 624 b 625 893 579 704 625 782 l 625 972 l 556 972 l 556 893 b 335 694 556 765 476 694 b 111 893 192 694 111 765 l 111 972 l 42 972 z "},"L":{"ha":556,"x_min":0,"x_max":0,"o":"m 321 0 l 542 0 l 542 61 l 321 61 b 97 260 178 61 97 132 l 97 972 l 28 972 l 28 260 b 321 0 28 93 133 0 z "},"M":{"ha":1153,"x_min":0,"x_max":0,"o":"m 542 735 l 542 0 l 611 0 l 611 735 b 835 933 611 863 692 933 b 1056 735 976 933 1056 863 l 1056 0 l 1125 0 l 1125 735 b 835 994 1125 901 1021 994 b 576 878 710 994 622 953 b 321 994 532 953 444 994 b 28 735 133 994 28 901 l 28 0 l 97 0 l 97 735 b 321 933 97 863 178 933 b 542 735 463 933 542 863 z "},"N":{"ha":639,"x_min":0,"x_max":0,"o":"m 542 735 l 542 0 l 611 0 l 611 735 b 321 994 611 901 507 994 b 28 735 133 994 28 901 l 28 0 l 97 0 l 97 735 b 321 933 97 863 178 933 b 542 735 463 933 542 863 z "},"Ñ":{"ha":639,"x_min":0,"x_max":0,"o":"m 542 735 l 542 0 l 611 0 l 611 735 b 321 994 611 901 507 994 b 28 735 133 994 28 901 l 28 0 l 97 0 l 97 735 b 321 933 97 863 178 933 b 542 735 463 933 542 863 z m 228 1133 b 282 1056 228 1090 249 1056 b 356 1082 308 1056 339 1082 b 372 1058 368 1082 372 1075 l 431 1058 b 385 1132 431 1107 411 1132 b 301 1110 349 1132 324 1110 b 285 1133 290 1110 285 1117 z "},"O":{"ha":639,"x_min":0,"x_max":0,"o":"m 611 238 l 611 735 b 318 994 611 901 506 994 b 28 735 132 994 28 901 l 28 238 b 318 -22 28 71 131 -22 b 611 238 506 -22 611 71 z m 97 238 l 97 735 b 318 933 97 863 176 933 b 542 735 461 933 542 863 l 542 238 b 318 39 542 110 461 39 b 97 238 175 39 97 110 z "},"Ó":{"ha":639,"x_min":0,"x_max":0,"o":"m 611 238 l 611 735 b 318 994 611 901 506 994 b 28 735 132 994 28 901 l 28 238 b 318 -22 28 71 131 -22 b 611 238 506 -22 611 71 z m 97 238 l 97 735 b 318 933 97 863 176 933 b 542 735 461 933 542 863 l 542 238 b 318 39 542 110 461 39 b 97 238 175 39 97 110 z m 260 1043 l 275 1029 l 383 1132 l 317 1179 z "},"Ô":{"ha":639,"x_min":0,"x_max":0,"o":"m 611 238 l 611 735 b 318 994 611 901 506 994 b 28 735 132 994 28 901 l 28 238 b 318 -22 28 71 131 -22 b 611 238 506 -22 611 71 z m 97 238 l 97 735 b 318 933 97 863 176 933 b 542 735 461 933 542 863 l 542 238 b 318 39 542 110 461 39 b 97 238 175 39 97 110 z m 208 1038 l 231 1038 l 318 1086 l 406 1038 l 428 1038 l 329 1172 l 307 1172 z "},"Ö":{"ha":639,"x_min":0,"x_max":0,"o":"m 611 238 l 611 735 b 318 994 611 901 506 994 b 28 735 132 994 28 901 l 28 238 b 318 -22 28 71 131 -22 b 611 238 506 -22 611 71 z m 97 238 l 97 735 b 318 933 97 863 176 933 b 542 735 461 933 542 863 l 542 238 b 318 39 542 110 461 39 b 97 238 175 39 97 110 z m 217 1104 b 261 1060 217 1081 238 1060 b 306 1104 285 1060 306 1081 b 261 1149 306 1128 285 1149 b 217 1104 238 1149 217 1128 z m 331 1104 b 375 1060 331 1081 351 1060 b 419 1104 399 1060 419 1081 b 375 1149 419 1128 399 1149 b 331 1104 351 1149 331 1128 z "},"Ò":{"ha":639,"x_min":0,"x_max":0,"o":"m 611 238 l 611 735 b 318 994 611 901 506 994 b 28 735 132 994 28 901 l 28 238 b 318 -22 28 71 131 -22 b 611 238 506 -22 611 71 z m 97 238 l 97 735 b 318 933 97 863 176 933 b 542 735 461 933 542 863 l 542 238 b 318 39 542 110 461 39 b 97 238 175 39 97 110 z m 251 1132 l 360 1029 l 375 1043 l 318 1179 z "},"Ø":{"ha":639,"x_min":0,"x_max":0,"o":"m 611 238 l 611 735 b 504 950 611 833 574 907 l 526 1024 l 454 1024 l 440 978 b 318 994 406 989 364 994 b 28 735 132 994 28 901 l 28 238 b 157 10 28 128 72 50 l 138 -58 l 210 -58 l 224 -12 b 318 -22 251 -19 283 -22 b 611 238 506 -22 611 71 z m 97 238 l 97 735 b 318 933 97 863 176 933 b 424 917 358 933 393 928 l 176 74 b 97 238 125 107 97 163 z m 240 47 l 485 881 b 542 735 522 847 542 799 l 542 238 b 318 39 542 110 461 39 b 240 47 290 39 264 42 z "},"Õ":{"ha":639,"x_min":0,"x_max":0,"o":"m 611 238 l 611 735 b 318 994 611 901 506 994 b 28 735 132 994 28 901 l 28 238 b 318 -22 28 71 131 -22 b 611 238 506 -22 611 71 z m 97 238 l 97 735 b 318 933 97 863 176 933 b 542 735 461 933 542 863 l 542 238 b 318 39 542 110 461 39 b 97 238 175 39 97 110 z m 225 1133 b 279 1056 225 1090 246 1056 b 353 1082 306 1056 336 1082 b 369 1058 365 1082 369 1075 l 428 1058 b 382 1132 428 1107 408 1132 b 299 1110 346 1132 321 1110 b 282 1133 288 1110 282 1117 z "},"Œ":{"ha":1069,"x_min":0,"x_max":0,"o":"m 542 735 l 542 238 b 318 39 542 110 461 39 b 97 238 175 39 97 110 l 97 735 b 318 933 97 863 176 933 b 542 735 461 933 542 863 z m 28 238 b 318 -22 28 71 131 -22 b 583 107 449 -22 540 24 b 835 0 631 38 715 0 l 1056 0 l 1056 61 l 835 61 b 611 260 692 61 611 132 l 611 633 l 981 633 l 981 694 l 611 694 l 611 713 b 835 911 611 840 692 911 l 1056 911 l 1056 972 l 835 972 b 583 865 715 972 631 935 b 318 994 540 949 449 994 b 28 735 132 994 28 901 z "},"P":{"ha":572,"x_min":0,"x_max":0,"o":"m 28 724 l 28 0 l 97 0 l 97 633 l 321 633 b 558 814 474 633 558 699 b 321 994 558 929 474 994 b 28 724 133 994 28 897 z m 97 694 l 97 724 b 321 933 97 858 178 933 b 489 814 429 933 489 890 b 321 694 489 738 429 694 z "},"Q":{"ha":639,"x_min":0,"x_max":0,"o":"m 28 735 l 28 238 b 321 -22 28 71 133 -22 b 458 0 374 -22 419 -15 l 515 -58 l 565 -10 l 522 33 b 611 238 581 78 611 147 l 611 735 b 321 994 611 901 507 994 b 28 735 133 994 28 901 z m 97 238 l 97 735 b 321 933 97 863 178 933 b 542 735 463 933 542 863 l 542 238 b 474 82 542 168 518 115 l 382 174 l 333 125 l 408 50 b 321 39 382 43 353 39 b 97 238 178 39 97 110 z "},"R":{"ha":639,"x_min":0,"x_max":0,"o":"m 28 724 l 28 0 l 97 0 l 97 633 l 321 633 b 542 435 463 633 542 563 l 542 0 l 611 0 l 611 435 b 475 667 611 547 564 626 b 558 814 529 696 558 746 b 321 994 558 929 474 994 b 28 724 133 994 28 897 z m 97 694 l 97 724 b 321 933 97 858 178 933 b 489 814 429 933 489 890 b 321 694 489 738 429 694 z "},"S":{"ha":586,"x_min":0,"x_max":0,"o":"m 265 933 b 440 872 339 933 407 910 l 493 917 b 265 994 449 964 360 994 b 28 782 119 994 28 913 b 489 238 28 519 489 501 b 265 39 489 115 403 39 b 90 101 192 39 125 63 l 39 56 b 265 -22 83 8 171 -22 b 558 238 446 -22 558 78 b 97 782 558 540 97 569 b 265 933 97 875 163 933 z "},"T":{"ha":472,"x_min":0,"x_max":0,"o":"m 458 972 l 14 972 l 14 911 l 201 911 l 201 0 l 271 0 l 271 911 l 458 911 z "},"U":{"ha":639,"x_min":0,"x_max":0,"o":"m 542 972 l 542 238 b 321 39 542 110 463 39 b 97 238 178 39 97 110 l 97 972 l 28 972 l 28 238 b 321 -22 28 71 133 -22 b 611 238 507 -22 611 71 l 611 972 z "},"Ú":{"ha":639,"x_min":0,"x_max":0,"o":"m 542 972 l 542 238 b 321 39 542 110 463 39 b 97 238 178 39 97 110 l 97 972 l 28 972 l 28 238 b 321 -22 28 71 133 -22 b 611 238 507 -22 611 71 l 611 972 z m 261 1043 l 276 1029 l 385 1132 l 318 1179 z "},"Û":{"ha":639,"x_min":0,"x_max":0,"o":"m 542 972 l 542 238 b 321 39 542 110 463 39 b 97 238 178 39 97 110 l 97 972 l 28 972 l 28 238 b 321 -22 28 71 133 -22 b 611 238 507 -22 611 71 l 611 972 z m 210 1038 l 232 1038 l 319 1086 l 407 1038 l 429 1038 l 331 1172 l 308 1172 z "},"Ü":{"ha":639,"x_min":0,"x_max":0,"o":"m 542 972 l 542 238 b 321 39 542 110 463 39 b 97 238 178 39 97 110 l 97 972 l 28 972 l 28 238 b 321 -22 28 71 133 -22 b 611 238 507 -22 611 71 l 611 972 z m 218 1104 b 263 1060 218 1081 239 1060 b 307 1104 286 1060 307 1081 b 263 1149 307 1128 286 1149 b 218 1104 239 1149 218 1128 z m 332 1104 b 376 1060 332 1081 353 1060 b 421 1104 400 1060 421 1081 b 376 1149 421 1128 400 1149 b 332 1104 353 1149 332 1128 z "},"Ù":{"ha":639,"x_min":0,"x_max":0,"o":"m 542 972 l 542 238 b 321 39 542 110 463 39 b 97 238 178 39 97 110 l 97 972 l 28 972 l 28 238 b 321 -22 28 71 133 -22 b 611 238 507 -22 611 71 l 611 972 z m 253 1132 l 361 1029 l 376 1043 l 319 1179 z "},"V":{"ha":611,"x_min":0,"x_max":0,"o":"m 306 -22 b 376 58 338 -22 364 8 l 597 972 l 528 972 l 311 72 b 306 63 310 68 308 63 b 300 72 303 63 301 68 l 83 972 l 14 972 l 235 58 b 306 -22 247 8 275 -22 z "},"W":{"ha":1168,"x_min":0,"x_max":0,"o":"m 589 900 l 792 58 b 863 -22 804 8 832 -22 b 933 58 894 -22 921 8 l 1154 972 l 1085 972 l 868 72 b 863 63 867 68 865 63 b 857 72 860 63 858 68 l 654 914 b 583 994 642 964 615 994 b 513 914 553 994 525 964 l 311 72 b 306 63 310 68 308 63 b 300 72 303 63 301 68 l 83 972 l 14 972 l 235 58 b 306 -22 247 8 275 -22 b 376 58 338 -22 364 8 l 578 900 b 583 910 579 904 581 910 b 589 900 586 910 588 904 z "},"Ẃ":{"ha":1168,"x_min":0,"x_max":0,"o":"m 589 900 l 792 58 b 863 -22 804 8 832 -22 b 933 58 894 -22 921 8 l 1154 972 l 1085 972 l 868 72 b 863 63 867 68 865 63 b 857 72 860 63 858 68 l 654 914 b 583 994 642 964 615 994 b 513 914 553 994 525 964 l 311 72 b 306 63 310 68 308 63 b 300 72 303 63 301 68 l 83 972 l 14 972 l 235 58 b 306 -22 247 8 275 -22 b 376 58 338 -22 364 8 l 578 900 b 583 910 579 904 581 910 b 589 900 586 910 588 904 z m 525 1043 l 540 1029 l 649 1132 l 582 1179 z "},"Ŵ":{"ha":1168,"x_min":0,"x_max":0,"o":"m 589 900 l 792 58 b 863 -22 804 8 832 -22 b 933 58 894 -22 921 8 l 1154 972 l 1085 972 l 868 72 b 863 63 867 68 865 63 b 857 72 860 63 858 68 l 654 914 b 583 994 642 964 615 994 b 513 914 553 994 525 964 l 311 72 b 306 63 310 68 308 63 b 300 72 303 63 301 68 l 83 972 l 14 972 l 235 58 b 306 -22 247 8 275 -22 b 376 58 338 -22 364 8 l 578 900 b 583 910 579 904 581 910 b 589 900 586 910 588 904 z m 474 1038 l 496 1038 l 583 1086 l 671 1038 l 693 1038 l 594 1172 l 572 1172 z "},"Ẅ":{"ha":1168,"x_min":0,"x_max":0,"o":"m 589 900 l 792 58 b 863 -22 804 8 832 -22 b 933 58 894 -22 921 8 l 1154 972 l 1085 972 l 868 72 b 863 63 867 68 865 63 b 857 72 860 63 858 68 l 654 914 b 583 994 642 964 615 994 b 513 914 553 994 525 964 l 311 72 b 306 63 310 68 308 63 b 300 72 303 63 301 68 l 83 972 l 14 972 l 235 58 b 306 -22 247 8 275 -22 b 376 58 338 -22 364 8 l 578 900 b 583 910 579 904 581 910 b 589 900 586 910 588 904 z m 482 1104 b 526 1060 482 1081 503 1060 b 571 1104 550 1060 571 1081 b 526 1149 571 1128 550 1149 b 482 1104 503 1149 482 1128 z m 596 1104 b 640 1060 596 1081 617 1060 b 685 1104 664 1060 685 1081 b 640 1149 685 1128 664 1149 b 596 1104 617 1149 596 1128 z "},"Ẁ":{"ha":1168,"x_min":0,"x_max":0,"o":"m 589 900 l 792 58 b 863 -22 804 8 832 -22 b 933 58 894 -22 921 8 l 1154 972 l 1085 972 l 868 72 b 863 63 867 68 865 63 b 857 72 860 63 858 68 l 654 914 b 583 994 642 964 615 994 b 513 914 553 994 525 964 l 311 72 b 306 63 310 68 308 63 b 300 72 303 63 301 68 l 83 972 l 14 972 l 235 58 b 306 -22 247 8 275 -22 b 376 58 338 -22 364 8 l 578 900 b 583 910 579 904 581 910 b 589 900 586 910 588 904 z m 517 1132 l 625 1029 l 640 1043 l 583 1179 z "},"X":{"ha":639,"x_min":0,"x_max":0,"o":"m 542 972 l 542 893 b 321 694 542 765 463 694 b 97 893 178 694 97 765 l 97 972 l 28 972 l 28 893 b 161 664 28 782 75 704 b 28 435 75 624 28 546 l 28 0 l 97 0 l 97 435 b 321 633 97 563 178 633 b 542 435 463 633 542 563 l 542 0 l 611 0 l 611 435 b 479 664 611 546 565 624 b 611 893 565 704 611 782 l 611 972 z "},"Y":{"ha":611,"x_min":0,"x_max":0,"o":"m 528 972 l 528 893 b 307 694 528 765 449 694 b 83 893 164 694 83 765 l 83 972 l 14 972 l 14 893 b 271 635 14 738 106 646 l 271 0 l 340 0 l 340 635 b 597 893 506 644 597 736 l 597 972 z "},"Ý":{"ha":611,"x_min":0,"x_max":0,"o":"m 528 972 l 528 893 b 307 694 528 765 449 694 b 83 893 164 694 83 765 l 83 972 l 14 972 l 14 893 b 271 635 14 738 106 646 l 271 0 l 340 0 l 340 635 b 597 893 506 644 597 736 l 597 972 z m 247 1043 l 263 1029 l 371 1132 l 304 1179 z "},"Ŷ":{"ha":611,"x_min":0,"x_max":0,"o":"m 528 972 l 528 893 b 307 694 528 765 449 694 b 83 893 164 694 83 765 l 83 972 l 14 972 l 14 893 b 271 635 14 738 106 646 l 271 0 l 340 0 l 340 635 b 597 893 506 644 597 736 l 597 972 z m 196 1038 l 218 1038 l 306 1086 l 393 1038 l 415 1038 l 317 1172 l 294 1172 z "},"Ÿ":{"ha":611,"x_min":0,"x_max":0,"o":"m 528 972 l 528 893 b 307 694 528 765 449 694 b 83 893 164 694 83 765 l 83 972 l 14 972 l 14 893 b 271 635 14 738 106 646 l 271 0 l 340 0 l 340 635 b 597 893 506 644 597 736 l 597 972 z m 204 1104 b 249 1060 204 1081 225 1060 b 293 1104 272 1060 293 1081 b 249 1149 293 1128 272 1149 b 204 1104 225 1149 204 1128 z m 318 1104 b 363 1060 318 1081 339 1060 b 407 1104 386 1060 407 1081 b 363 1149 407 1128 386 1149 b 318 1104 339 1149 318 1128 z "},"Ỳ":{"ha":611,"x_min":0,"x_max":0,"o":"m 528 972 l 528 893 b 307 694 528 765 449 694 b 83 893 164 694 83 765 l 83 972 l 14 972 l 14 893 b 271 635 14 738 106 646 l 271 0 l 340 0 l 340 635 b 597 893 506 644 597 736 l 597 972 z m 239 1132 l 347 1029 l 363 1043 l 306 1179 z "},"Z":{"ha":532,"x_min":0,"x_max":0,"o":"m 394 726 l 58 260 b 176 0 -28 140 14 0 l 518 0 l 518 61 l 222 61 b 132 246 79 61 51 135 l 468 713 b 315 972 561 842 503 972 l 29 972 l 29 911 l 304 911 b 394 726 447 911 467 826 z "},"a":{"ha":592,"x_min":0,"x_max":0,"o":"m 497 257 l 497 58 l 290 58 b 81 257 156 58 81 129 b 290 456 81 385 156 456 b 497 257 424 456 497 385 z m 14 257 b 290 0 14 92 113 0 l 564 0 l 564 460 b 288 717 564 625 465 717 b 72 636 192 717 118 689 l 121 592 b 288 658 154 635 211 658 b 497 460 422 658 497 588 l 497 435 b 290 514 454 486 386 514 b 14 257 113 514 14 422 z "},"á":{"ha":592,"x_min":0,"x_max":0,"o":"m 497 257 l 497 58 l 290 58 b 81 257 156 58 81 129 b 290 456 81 385 156 456 b 497 257 424 456 497 385 z m 14 257 b 290 0 14 92 113 0 l 564 0 l 564 460 b 288 717 564 625 465 717 b 72 636 192 717 118 689 l 121 592 b 288 658 154 635 211 658 b 497 460 422 658 497 588 l 497 435 b 290 514 454 486 386 514 b 14 257 113 514 14 422 z m 258 765 l 274 751 l 382 854 l 315 901 z "},"â":{"ha":592,"x_min":0,"x_max":0,"o":"m 497 257 l 497 58 l 290 58 b 81 257 156 58 81 129 b 290 456 81 385 156 456 b 497 257 424 456 497 385 z m 14 257 b 290 0 14 92 113 0 l 564 0 l 564 460 b 288 717 564 625 465 717 b 72 636 192 717 118 689 l 121 592 b 288 658 154 635 211 658 b 497 460 422 658 497 588 l 497 435 b 290 514 454 486 386 514 b 14 257 113 514 14 422 z m 207 760 l 229 760 l 317 808 l 404 760 l 426 760 l 328 894 l 306 894 z "},"ä":{"ha":592,"x_min":0,"x_max":0,"o":"m 497 257 l 497 58 l 290 58 b 81 257 156 58 81 129 b 290 456 81 385 156 456 b 497 257 424 456 497 385 z m 14 257 b 290 0 14 92 113 0 l 564 0 l 564 460 b 288 717 564 625 465 717 b 72 636 192 717 118 689 l 121 592 b 288 658 154 635 211 658 b 497 460 422 658 497 588 l 497 435 b 290 514 454 486 386 514 b 14 257 113 514 14 422 z m 215 826 b 260 782 215 803 236 782 b 304 826 283 782 304 803 b 260 871 304 850 283 871 b 215 826 236 871 215 850 z m 329 826 b 374 782 329 803 350 782 b 418 826 397 782 418 803 b 374 871 418 850 397 871 b 329 826 350 871 329 850 z "},"à":{"ha":592,"x_min":0,"x_max":0,"o":"m 497 257 l 497 58 l 290 58 b 81 257 156 58 81 129 b 290 456 81 385 156 456 b 497 257 424 456 497 385 z m 14 257 b 290 0 14 92 113 0 l 564 0 l 564 460 b 288 717 564 625 465 717 b 72 636 192 717 118 689 l 121 592 b 288 658 154 635 211 658 b 497 460 422 658 497 588 l 497 435 b 290 514 454 486 386 514 b 14 257 113 514 14 422 z m 250 854 l 358 751 l 374 765 l 317 901 z "},"å":{"ha":592,"x_min":0,"x_max":0,"o":"m 497 257 l 497 58 l 290 58 b 81 257 156 58 81 129 b 290 456 81 385 156 456 b 497 257 424 456 497 385 z m 14 257 b 290 0 14 92 113 0 l 564 0 l 564 460 b 288 717 564 625 465 717 b 72 636 192 717 118 689 l 121 592 b 288 658 154 635 211 658 b 497 460 422 658 497 588 l 497 435 b 290 514 454 486 386 514 b 14 257 113 514 14 422 z m 240 824 b 317 747 240 782 275 747 b 393 824 358 747 393 782 b 317 900 393 865 358 900 b 240 824 275 900 240 865 z m 285 824 b 317 856 285 840 299 856 b 349 824 335 856 349 840 b 317 792 349 806 335 792 b 285 824 299 792 285 806 z "},"ã":{"ha":592,"x_min":0,"x_max":0,"o":"m 497 257 l 497 58 l 290 58 b 81 257 156 58 81 129 b 290 456 81 385 156 456 b 497 257 424 456 497 385 z m 14 257 b 290 0 14 92 113 0 l 564 0 l 564 460 b 288 717 564 625 465 717 b 72 636 192 717 118 689 l 121 592 b 288 658 154 635 211 658 b 497 460 422 658 497 588 l 497 435 b 290 514 454 486 386 514 b 14 257 113 514 14 422 z m 224 856 b 278 778 224 813 244 778 b 351 804 304 778 335 804 b 368 781 364 804 368 797 l 426 781 b 381 854 426 829 407 854 b 297 832 344 854 319 832 b 281 856 286 832 281 839 z "},"æ":{"ha":1036,"x_min":0,"x_max":0,"o":"m 14 257 b 288 -22 14 78 113 -22 b 531 92 406 -22 488 18 b 774 -22 574 18 657 -22 b 989 58 869 -22 943 6 l 940 103 b 774 36 906 60 850 36 b 564 235 639 36 564 107 l 564 246 l 1022 588 b 774 717 982 671 897 717 b 531 601 656 717 574 676 b 288 717 488 676 406 717 b 72 636 192 717 118 689 l 121 592 b 288 658 154 635 211 658 b 497 460 422 658 497 588 l 497 432 b 290 514 453 485 383 514 b 14 257 113 514 14 422 z m 81 257 b 290 456 81 385 156 456 b 497 257 424 456 497 385 l 497 235 b 288 36 497 107 422 36 b 81 257 154 36 81 115 z m 564 319 l 564 460 b 774 658 564 588 639 658 b 936 597 847 658 901 638 z "},"b":{"ha":619,"x_min":0,"x_max":0,"o":"m 108 633 l 108 972 l 42 972 l 42 0 l 315 0 b 592 257 493 0 592 92 l 592 460 b 315 717 592 625 493 717 b 108 633 219 717 151 686 z m 108 58 l 108 460 b 315 658 108 588 182 658 b 525 460 450 658 525 588 l 525 257 b 315 58 525 129 450 58 z "},"c":{"ha":533,"x_min":0,"x_max":0,"o":"m 471 592 l 519 636 b 304 717 474 689 400 717 b 28 460 126 717 28 625 l 28 235 b 304 -22 28 69 126 -22 b 519 58 400 -22 474 6 l 471 103 b 304 36 436 60 381 36 b 94 235 169 36 94 107 l 94 460 b 304 658 94 588 169 658 b 471 592 381 658 438 635 z "},"ç":{"ha":533,"x_min":0,"x_max":0,"o":"m 471 592 l 519 636 b 304 717 474 689 400 717 b 28 460 126 717 28 625 l 28 235 b 269 -21 28 81 114 -10 l 269 -62 l 296 -94 b 313 -89 301 -90 307 -89 b 343 -118 332 -89 343 -100 b 313 -149 343 -137 332 -149 b 296 -142 308 -149 301 -146 l 265 -171 b 313 -190 281 -183 297 -190 b 385 -118 354 -190 385 -164 b 313 -47 385 -72 358 -47 l 313 -22 b 519 58 404 -21 475 7 l 471 103 b 304 36 436 60 381 36 b 94 235 169 36 94 107 l 94 460 b 304 658 94 588 169 658 b 471 592 381 658 438 635 z "},"d":{"ha":619,"x_min":0,"x_max":0,"o":"m 511 633 b 304 717 468 686 400 717 b 28 460 126 717 28 625 l 28 257 b 304 0 28 92 126 0 l 578 0 l 578 972 l 511 972 z m 94 257 l 94 460 b 304 658 94 588 169 658 b 511 460 438 658 511 588 l 511 58 l 304 58 b 94 257 169 58 94 129 z "},"e":{"ha":567,"x_min":0,"x_max":0,"o":"m 28 460 l 28 235 b 304 -22 28 69 126 -22 b 519 58 400 -22 474 6 l 471 103 b 304 36 436 60 381 36 b 94 235 169 36 94 107 l 94 246 l 553 588 b 304 717 513 671 428 717 b 28 460 126 717 28 625 z m 94 319 l 94 460 b 304 658 94 588 169 658 b 467 597 378 658 432 638 z "},"é":{"ha":567,"x_min":0,"x_max":0,"o":"m 28 460 l 28 235 b 304 -22 28 69 126 -22 b 519 58 400 -22 474 6 l 471 103 b 304 36 436 60 381 36 b 94 235 169 36 94 107 l 94 246 l 553 588 b 304 717 513 671 428 717 b 28 460 126 717 28 625 z m 94 319 l 94 460 b 304 658 94 588 169 658 b 467 597 378 658 432 638 z m 246 765 l 261 751 l 369 854 l 303 901 z "},"ê":{"ha":567,"x_min":0,"x_max":0,"o":"m 28 460 l 28 235 b 304 -22 28 69 126 -22 b 519 58 400 -22 474 6 l 471 103 b 304 36 436 60 381 36 b 94 235 169 36 94 107 l 94 246 l 553 588 b 304 717 513 671 428 717 b 28 460 126 717 28 625 z m 94 319 l 94 460 b 304 658 94 588 169 658 b 467 597 378 658 432 638 z m 194 760 l 217 760 l 304 808 l 392 760 l 414 760 l 315 894 l 293 894 z "},"ë":{"ha":567,"x_min":0,"x_max":0,"o":"m 28 460 l 28 235 b 304 -22 28 69 126 -22 b 519 58 400 -22 474 6 l 471 103 b 304 36 436 60 381 36 b 94 235 169 36 94 107 l 94 246 l 553 588 b 304 717 513 671 428 717 b 28 460 126 717 28 625 z m 94 319 l 94 460 b 304 658 94 588 169 658 b 467 597 378 658 432 638 z m 203 826 b 247 782 203 803 224 782 b 292 826 271 782 292 803 b 247 871 292 850 271 871 b 203 826 224 871 203 850 z m 317 826 b 361 782 317 803 338 782 b 406 826 385 782 406 803 b 361 871 406 850 385 871 b 317 826 338 871 317 850 z "},"è":{"ha":567,"x_min":0,"x_max":0,"o":"m 28 460 l 28 235 b 304 -22 28 69 126 -22 b 519 58 400 -22 474 6 l 471 103 b 304 36 436 60 381 36 b 94 235 169 36 94 107 l 94 246 l 553 588 b 304 717 513 671 428 717 b 28 460 126 717 28 625 z m 94 319 l 94 460 b 304 658 94 588 169 658 b 467 597 378 658 432 638 z m 238 854 l 346 751 l 361 765 l 304 901 z "},"f":{"ha":357,"x_min":0,"x_max":0,"o":"m 343 936 l 343 994 b 67 738 165 994 67 903 l 67 694 l 14 694 l 14 636 l 67 636 l 67 0 l 133 0 l 133 636 l 271 636 l 271 694 l 133 694 l 133 738 b 343 936 133 865 208 936 z "},"g":{"ha":606,"x_min":0,"x_max":0,"o":"m 511 438 b 304 239 511 310 438 239 b 94 438 169 239 94 310 b 304 636 94 565 169 636 l 511 636 z m 28 438 b 304 181 28 272 126 181 b 511 260 400 181 468 208 l 511 235 b 301 36 511 107 436 36 b 135 103 225 36 168 60 l 86 58 b 301 -22 132 6 206 -22 b 578 235 479 -22 578 69 l 578 694 l 304 694 b 28 438 126 694 28 603 z "},"h":{"ha":619,"x_min":0,"x_max":0,"o":"m 108 633 l 108 972 l 42 972 l 42 0 l 108 0 l 108 460 b 315 658 108 588 182 658 b 525 460 450 658 525 588 l 525 0 l 592 0 l 592 460 b 315 717 592 625 493 717 b 108 633 219 717 151 686 z "},"i":{"ha":150,"x_min":0,"x_max":0,"o":"m 108 694 l 42 694 l 42 0 l 108 0 z m 31 826 b 75 782 31 803 51 782 b 119 826 99 782 119 803 b 75 871 119 850 99 871 b 31 826 51 871 31 850 z "},"ı":{"ha":150,"x_min":0,"x_max":0,"o":"m 108 694 l 42 694 l 42 0 l 108 0 z "},"í":{"ha":150,"x_min":0,"x_max":0,"o":"m 108 694 l 42 694 l 42 0 l 108 0 z m 17 765 l 32 751 l 140 854 l 74 901 z "},"î":{"ha":150,"x_min":0,"x_max":0,"o":"m 108 694 l 42 694 l 42 0 l 108 0 z m -35 760 l -12 760 l 75 808 l 163 760 l 185 760 l 86 894 l 64 894 z "},"ï":{"ha":150,"x_min":0,"x_max":0,"o":"m 108 694 l 42 694 l 42 0 l 108 0 z m -26 826 b 18 782 -26 803 -6 782 b 63 826 42 782 63 803 b 18 871 63 850 42 871 b -26 826 -6 871 -26 850 z m 88 826 b 132 782 88 803 108 782 b 176 826 156 782 176 803 b 132 871 176 850 156 871 b 88 826 108 871 88 850 z "},"ì":{"ha":150,"x_min":0,"x_max":0,"o":"m 108 694 l 42 694 l 42 0 l 108 0 z m 8 854 l 117 751 l 132 765 l 75 901 z "},"j":{"ha":332,"x_min":0,"x_max":0,"o":"m 14 -219 l 14 -278 b 290 -21 192 -278 290 -186 l 290 694 l 224 694 l 224 -21 b 14 -219 224 -149 149 -219 z m 213 826 b 257 782 213 803 233 782 b 301 826 281 782 301 803 b 257 871 301 850 281 871 b 213 826 233 871 213 850 z "},"ȷ":{"ha":332,"x_min":0,"x_max":0,"o":"m 14 -219 l 14 -278 b 290 -21 192 -278 290 -186 l 290 694 l 224 694 l 224 -21 b 14 -219 224 -149 149 -219 z "},"k":{"ha":589,"x_min":0,"x_max":0,"o":"m 108 972 l 42 972 l 42 0 l 108 0 l 108 392 l 285 392 b 494 193 419 392 494 321 l 494 0 l 561 0 l 561 193 b 433 421 561 304 517 382 b 561 649 517 460 561 538 l 561 694 l 494 694 l 494 649 b 285 450 494 521 419 450 l 108 450 z "},"l":{"ha":150,"x_min":0,"x_max":0,"o":"m 108 972 l 42 972 l 42 0 l 108 0 z "},"m":{"ha":1089,"x_min":0,"x_max":0,"o":"m 511 460 l 511 0 l 578 0 l 578 460 b 788 658 578 588 653 658 b 994 460 921 658 994 588 l 994 0 l 1061 0 l 1061 460 b 788 717 1061 625 963 717 b 544 601 669 717 588 676 b 304 717 501 676 419 717 b 28 460 126 717 28 625 l 28 0 l 94 0 l 94 460 b 304 658 94 588 169 658 b 511 460 438 658 511 588 z "},"n":{"ha":606,"x_min":0,"x_max":0,"o":"m 511 460 l 511 0 l 578 0 l 578 460 b 304 717 578 625 479 717 b 28 460 126 717 28 625 l 28 0 l 94 0 l 94 460 b 304 658 94 588 169 658 b 511 460 438 658 511 588 z "},"ñ":{"ha":606,"x_min":0,"x_max":0,"o":"m 511 460 l 511 0 l 578 0 l 578 460 b 304 717 578 625 479 717 b 28 460 126 717 28 625 l 28 0 l 94 0 l 94 460 b 304 658 94 588 169 658 b 511 460 438 658 511 588 z m 211 856 b 265 778 211 813 232 778 b 339 804 292 778 322 804 b 356 781 351 804 356 797 l 414 781 b 368 854 414 829 394 854 b 285 832 332 854 307 832 b 268 856 274 832 268 839 z "},"o":{"ha":606,"x_min":0,"x_max":0,"o":"m 28 460 l 28 235 b 304 -22 28 69 126 -22 b 578 235 479 -22 578 69 l 578 460 b 304 717 578 625 479 717 b 28 460 126 717 28 625 z m 94 235 l 94 460 b 304 658 94 588 169 658 b 511 460 438 658 511 588 l 511 235 b 304 36 511 107 438 36 b 94 235 169 36 94 107 z "},"ó":{"ha":606,"x_min":0,"x_max":0,"o":"m 28 460 l 28 235 b 304 -22 28 69 126 -22 b 578 235 479 -22 578 69 l 578 460 b 304 717 578 625 479 717 b 28 460 126 717 28 625 z m 94 235 l 94 460 b 304 658 94 588 169 658 b 511 460 438 658 511 588 l 511 235 b 304 36 511 107 438 36 b 94 235 169 36 94 107 z m 246 765 l 261 751 l 369 854 l 303 901 z "},"ô":{"ha":606,"x_min":0,"x_max":0,"o":"m 28 460 l 28 235 b 304 -22 28 69 126 -22 b 578 235 479 -22 578 69 l 578 460 b 304 717 578 625 479 717 b 28 460 126 717 28 625 z m 94 235 l 94 460 b 304 658 94 588 169 658 b 511 460 438 658 511 588 l 511 235 b 304 36 511 107 438 36 b 94 235 169 36 94 107 z m 194 760 l 217 760 l 304 808 l 392 760 l 414 760 l 315 894 l 293 894 z "},"ö":{"ha":606,"x_min":0,"x_max":0,"o":"m 28 460 l 28 235 b 304 -22 28 69 126 -22 b 578 235 479 -22 578 69 l 578 460 b 304 717 578 625 479 717 b 28 460 126 717 28 625 z m 94 235 l 94 460 b 304 658 94 588 169 658 b 511 460 438 658 511 588 l 511 235 b 304 36 511 107 438 36 b 94 235 169 36 94 107 z m 203 826 b 247 782 203 803 224 782 b 292 826 271 782 292 803 b 247 871 292 850 271 871 b 203 826 224 871 203 850 z m 317 826 b 361 782 317 803 338 782 b 406 826 385 782 406 803 b 361 871 406 850 385 871 b 317 826 338 871 317 850 z "},"ò":{"ha":606,"x_min":0,"x_max":0,"o":"m 28 460 l 28 235 b 304 -22 28 69 126 -22 b 578 235 479 -22 578 69 l 578 460 b 304 717 578 625 479 717 b 28 460 126 717 28 625 z m 94 235 l 94 460 b 304 658 94 588 169 658 b 511 460 438 658 511 588 l 511 235 b 304 36 511 107 438 36 b 94 235 169 36 94 107 z m 238 854 l 346 751 l 361 765 l 304 901 z "},"ø":{"ha":606,"x_min":0,"x_max":0,"o":"m 28 460 l 28 235 b 169 0 28 118 78 38 l 138 -110 l 210 -110 l 238 -17 b 304 -22 258 -21 281 -22 b 578 235 479 -22 578 69 l 578 460 b 444 690 578 574 531 653 l 472 783 l 400 783 l 379 710 b 304 717 356 714 331 717 b 28 460 126 717 28 625 z m 94 235 l 94 460 b 304 658 94 588 169 658 b 361 653 325 658 344 657 l 188 60 b 94 235 126 92 94 150 z m 254 40 l 428 629 b 511 460 482 599 511 540 l 511 235 b 304 36 511 107 438 36 b 254 40 286 36 269 38 z "},"õ":{"ha":606,"x_min":0,"x_max":0,"o":"m 28 460 l 28 235 b 304 -22 28 69 126 -22 b 578 235 479 -22 578 69 l 578 460 b 304 717 578 625 479 717 b 28 460 126 717 28 625 z m 94 235 l 94 460 b 304 658 94 588 169 658 b 511 460 438 658 511 588 l 511 235 b 304 36 511 107 438 36 b 94 235 169 36 94 107 z m 211 856 b 265 778 211 813 232 778 b 339 804 292 778 322 804 b 356 781 351 804 356 797 l 414 781 b 368 854 414 829 394 854 b 285 832 332 854 307 832 b 268 856 274 832 268 839 z "},"œ":{"ha":1050,"x_min":0,"x_max":0,"o":"m 28 460 l 28 235 b 304 -22 28 69 126 -22 b 544 93 419 -22 501 18 b 788 -22 588 18 669 -22 b 1003 58 883 -22 957 6 l 954 103 b 788 36 919 60 864 36 b 578 235 653 36 578 107 l 578 246 l 1036 588 b 788 717 996 671 911 717 b 544 601 669 717 588 676 b 304 717 501 676 419 717 b 28 460 126 717 28 625 z m 94 235 l 94 460 b 304 658 94 588 169 658 b 511 460 438 658 511 588 l 511 235 b 304 36 511 107 438 36 b 94 235 169 36 94 107 z m 578 319 l 578 460 b 788 658 578 588 653 658 b 950 597 861 658 915 638 z "},"p":{"ha":619,"x_min":0,"x_max":0,"o":"m 108 -278 l 108 61 b 315 -22 151 8 219 -22 b 592 235 493 -22 592 69 l 592 438 b 315 694 592 603 493 694 l 42 694 l 42 -278 z m 108 235 l 108 636 l 315 636 b 525 438 450 636 525 565 l 525 235 b 315 36 525 107 450 36 b 108 235 182 36 108 107 z "},"q":{"ha":619,"x_min":0,"x_max":0,"o":"m 511 61 l 511 -278 l 578 -278 l 578 694 l 304 694 b 28 438 126 694 28 603 l 28 235 b 304 -22 28 69 126 -22 b 511 61 400 -22 468 8 z m 94 235 l 94 438 b 304 636 94 565 169 636 l 511 636 l 511 235 b 304 36 511 107 438 36 b 94 235 169 36 94 107 z "},"r":{"ha":318,"x_min":0,"x_max":0,"o":"m 304 636 l 304 694 b 28 438 126 694 28 603 l 28 0 l 94 0 l 94 438 b 304 636 94 565 169 636 z "},"s":{"ha":544,"x_min":0,"x_max":0,"o":"m 243 658 b 410 592 319 658 376 635 l 458 636 b 243 717 413 689 339 717 b 29 550 111 717 29 653 b 450 200 29 294 450 414 b 243 36 450 100 371 36 b 76 103 167 36 111 60 l 28 58 b 243 -22 74 6 147 -22 b 517 200 411 -22 517 64 b 96 550 517 474 96 358 b 243 658 96 617 153 658 z "},"t":{"ha":357,"x_min":0,"x_max":0,"o":"m 343 0 l 343 58 b 133 257 208 58 133 129 l 133 636 l 271 636 l 271 694 l 133 694 l 133 792 l 67 792 l 67 694 l 14 694 l 14 636 l 67 636 l 67 257 b 343 0 67 92 165 0 z "},"u":{"ha":606,"x_min":0,"x_max":0,"o":"m 511 694 l 511 235 b 304 36 511 107 438 36 b 94 235 169 36 94 107 l 94 694 l 28 694 l 28 235 b 304 -22 28 69 126 -22 b 578 235 479 -22 578 69 l 578 694 z "},"ú":{"ha":606,"x_min":0,"x_max":0,"o":"m 511 694 l 511 235 b 304 36 511 107 438 36 b 94 235 169 36 94 107 l 94 694 l 28 694 l 28 235 b 304 -22 28 69 126 -22 b 578 235 479 -22 578 69 l 578 694 z m 244 765 l 260 751 l 368 854 l 301 901 z "},"û":{"ha":606,"x_min":0,"x_max":0,"o":"m 511 694 l 511 235 b 304 36 511 107 438 36 b 94 235 169 36 94 107 l 94 694 l 28 694 l 28 235 b 304 -22 28 69 126 -22 b 578 235 479 -22 578 69 l 578 694 z m 193 760 l 215 760 l 303 808 l 390 760 l 413 760 l 314 894 l 292 894 z "},"ü":{"ha":606,"x_min":0,"x_max":0,"o":"m 511 694 l 511 235 b 304 36 511 107 438 36 b 94 235 169 36 94 107 l 94 694 l 28 694 l 28 235 b 304 -22 28 69 126 -22 b 578 235 479 -22 578 69 l 578 694 z m 201 826 b 246 782 201 803 222 782 b 290 826 269 782 290 803 b 246 871 290 850 269 871 b 201 826 222 871 201 850 z m 315 826 b 360 782 315 803 336 782 b 404 826 383 782 404 803 b 360 871 404 850 383 871 b 315 826 336 871 315 850 z "},"ù":{"ha":606,"x_min":0,"x_max":0,"o":"m 511 694 l 511 235 b 304 36 511 107 438 36 b 94 235 169 36 94 107 l 94 694 l 28 694 l 28 235 b 304 -22 28 69 126 -22 b 578 235 479 -22 578 69 l 578 694 z m 236 854 l 344 751 l 360 765 l 303 901 z "},"v":{"ha":578,"x_min":0,"x_max":0,"o":"m 358 36 l 564 694 l 497 694 l 296 44 b 292 36 294 40 293 36 b 288 44 290 36 289 40 l 83 694 l 14 694 l 219 36 b 289 -22 229 7 247 -22 b 358 36 331 -22 349 7 z "},"w":{"ha":1113,"x_min":0,"x_max":0,"o":"m 563 650 l 754 36 b 824 -22 764 7 782 -22 b 893 36 865 -22 883 7 l 1099 694 l 1032 694 l 831 44 b 826 36 829 40 828 36 b 822 44 825 36 824 40 l 625 658 b 556 717 615 688 597 717 b 486 658 514 717 496 688 l 296 44 b 292 36 294 40 293 36 b 288 44 290 36 289 40 l 83 694 l 14 694 l 219 36 b 289 -22 229 7 247 -22 b 358 36 331 -22 349 7 l 554 650 b 558 658 556 654 557 658 b 563 650 560 658 561 654 z "},"ẃ":{"ha":1113,"x_min":0,"x_max":0,"o":"m 563 650 l 754 36 b 824 -22 764 7 782 -22 b 893 36 865 -22 883 7 l 1099 694 l 1032 694 l 831 44 b 826 36 829 40 828 36 b 822 44 825 36 824 40 l 625 658 b 556 717 615 688 597 717 b 486 658 514 717 496 688 l 296 44 b 292 36 294 40 293 36 b 288 44 290 36 289 40 l 83 694 l 14 694 l 219 36 b 289 -22 229 7 247 -22 b 358 36 331 -22 349 7 l 554 650 b 558 658 556 654 557 658 b 563 650 560 658 561 654 z m 499 765 l 514 751 l 622 854 l 556 901 z "},"ŵ":{"ha":1113,"x_min":0,"x_max":0,"o":"m 563 650 l 754 36 b 824 -22 764 7 782 -22 b 893 36 865 -22 883 7 l 1099 694 l 1032 694 l 831 44 b 826 36 829 40 828 36 b 822 44 825 36 824 40 l 625 658 b 556 717 615 688 597 717 b 486 658 514 717 496 688 l 296 44 b 292 36 294 40 293 36 b 288 44 290 36 289 40 l 83 694 l 14 694 l 219 36 b 289 -22 229 7 247 -22 b 358 36 331 -22 349 7 l 554 650 b 558 658 556 654 557 658 b 563 650 560 658 561 654 z m 447 760 l 469 760 l 557 808 l 644 760 l 667 760 l 568 894 l 546 894 z "},"ẅ":{"ha":1113,"x_min":0,"x_max":0,"o":"m 563 650 l 754 36 b 824 -22 764 7 782 -22 b 893 36 865 -22 883 7 l 1099 694 l 1032 694 l 831 44 b 826 36 829 40 828 36 b 822 44 825 36 824 40 l 625 658 b 556 717 615 688 597 717 b 486 658 514 717 496 688 l 296 44 b 292 36 294 40 293 36 b 288 44 290 36 289 40 l 83 694 l 14 694 l 219 36 b 289 -22 229 7 247 -22 b 358 36 331 -22 349 7 l 554 650 b 558 658 556 654 557 658 b 563 650 560 658 561 654 z m 456 826 b 500 782 456 803 476 782 b 544 826 524 782 544 803 b 500 871 544 850 524 871 b 456 826 476 871 456 850 z m 569 826 b 614 782 569 803 590 782 b 658 826 638 782 658 803 b 614 871 658 850 638 871 b 569 826 590 871 569 850 z "},"ẁ":{"ha":1113,"x_min":0,"x_max":0,"o":"m 563 650 l 754 36 b 824 -22 764 7 782 -22 b 893 36 865 -22 883 7 l 1099 694 l 1032 694 l 831 44 b 826 36 829 40 828 36 b 822 44 825 36 824 40 l 625 658 b 556 717 615 688 597 717 b 486 658 514 717 496 688 l 296 44 b 292 36 294 40 293 36 b 288 44 290 36 289 40 l 83 694 l 14 694 l 219 36 b 289 -22 229 7 247 -22 b 358 36 331 -22 349 7 l 554 650 b 558 658 556 654 557 658 b 563 650 560 658 561 654 z m 490 854 l 599 751 l 614 765 l 557 901 z "},"x":{"ha":606,"x_min":0,"x_max":0,"o":"m 511 694 l 511 638 b 304 439 511 510 438 439 b 94 638 169 439 94 510 l 94 694 l 28 694 l 28 638 b 156 410 28 526 72 449 b 28 182 72 371 28 293 l 28 0 l 94 0 l 94 182 b 304 381 94 310 169 381 b 511 182 438 381 511 310 l 511 0 l 578 0 l 578 182 b 451 410 578 293 533 371 b 578 638 533 449 578 526 l 578 694 z "},"y":{"ha":606,"x_min":0,"x_max":0,"o":"m 511 260 l 511 235 b 301 36 511 107 436 36 b 135 103 225 36 168 60 l 86 58 b 301 -22 132 6 206 -22 b 578 235 479 -22 578 69 l 578 694 l 511 694 l 511 438 b 304 239 511 310 438 239 b 94 438 169 239 94 310 l 94 694 l 28 694 l 28 438 b 304 181 28 272 126 181 b 511 260 400 181 468 208 z "},"ý":{"ha":606,"x_min":0,"x_max":0,"o":"m 511 260 l 511 235 b 301 36 511 107 436 36 b 135 103 225 36 168 60 l 86 58 b 301 -22 132 6 206 -22 b 578 235 479 -22 578 69 l 578 694 l 511 694 l 511 438 b 304 239 511 310 438 239 b 94 438 169 239 94 310 l 94 694 l 28 694 l 28 438 b 304 181 28 272 126 181 b 511 260 400 181 468 208 z m 244 765 l 260 751 l 368 854 l 301 901 z "},"ŷ":{"ha":606,"x_min":0,"x_max":0,"o":"m 511 260 l 511 235 b 301 36 511 107 436 36 b 135 103 225 36 168 60 l 86 58 b 301 -22 132 6 206 -22 b 578 235 479 -22 578 69 l 578 694 l 511 694 l 511 438 b 304 239 511 310 438 239 b 94 438 169 239 94 310 l 94 694 l 28 694 l 28 438 b 304 181 28 272 126 181 b 511 260 400 181 468 208 z m 193 760 l 215 760 l 303 808 l 390 760 l 413 760 l 314 894 l 292 894 z "},"ÿ":{"ha":606,"x_min":0,"x_max":0,"o":"m 511 260 l 511 235 b 301 36 511 107 436 36 b 135 103 225 36 168 60 l 86 58 b 301 -22 132 6 206 -22 b 578 235 479 -22 578 69 l 578 694 l 511 694 l 511 438 b 304 239 511 310 438 239 b 94 438 169 239 94 310 l 94 694 l 28 694 l 28 438 b 304 181 28 272 126 181 b 511 260 400 181 468 208 z m 201 826 b 246 782 201 803 222 782 b 290 826 269 782 290 803 b 246 871 290 850 269 871 b 201 826 222 871 201 850 z m 315 826 b 360 782 315 803 336 782 b 404 826 383 782 404 803 b 360 871 404 850 383 871 b 315 826 336 871 315 850 z "},"ỳ":{"ha":606,"x_min":0,"x_max":0,"o":"m 511 260 l 511 235 b 301 36 511 107 436 36 b 135 103 225 36 168 60 l 86 58 b 301 -22 132 6 206 -22 b 578 235 479 -22 578 69 l 578 694 l 511 694 l 511 438 b 304 239 511 310 438 239 b 94 438 169 239 94 310 l 94 694 l 28 694 l 28 438 b 304 181 28 272 126 181 b 511 260 400 181 468 208 z m 236 854 l 344 751 l 360 765 l 303 901 z "},"z":{"ha":489,"x_min":0,"x_max":0,"o":"m 357 501 l 64 201 b 115 0 -25 110 14 0 l 464 0 l 464 58 l 136 58 b 128 175 82 58 56 100 l 424 478 b 344 694 504 560 497 694 l 33 694 l 33 636 l 336 636 b 357 501 438 636 418 564 z "},".":{"ha":135,"x_min":0,"x_max":0,"o":"m 68 -22 b 107 18 90 -22 107 -6 b 68 57 107 40 90 57 b 28 18 44 57 28 40 b 68 -22 28 -6 44 -22 z "},",":{"ha":151,"x_min":0,"x_max":0,"o":"m 28 -72 l 32 -81 b 124 18 64 -81 124 -24 b 85 57 124 40 107 57 b 44 18 61 57 44 40 b 61 -36 44 -10 61 -18 b 28 -72 61 -62 40 -69 z "},":":{"ha":135,"x_min":0,"x_max":0,"o":"m 68 238 b 107 278 90 238 107 254 b 68 317 107 300 90 317 b 28 278 44 317 28 300 b 68 238 28 254 44 238 z m 28 618 b 68 578 28 594 44 578 b 107 618 90 578 107 594 b 68 657 107 640 90 657 b 28 618 44 657 28 640 z "},";":{"ha":151,"x_min":0,"x_max":0,"o":"m 85 578 b 124 618 107 578 124 594 b 85 657 124 640 107 657 b 44 618 61 657 44 640 b 85 578 44 594 61 578 z m 28 188 l 32 179 b 124 278 64 179 124 236 b 85 317 124 300 107 317 b 44 278 61 317 44 300 b 61 224 44 250 61 242 b 28 188 61 197 40 190 z "},"!":{"ha":163,"x_min":0,"x_max":0,"o":"m 47 972 l 47 218 l 117 218 l 117 972 z m 42 40 b 82 0 42 17 58 0 b 121 40 104 0 121 17 b 82 79 121 63 104 79 b 42 40 58 79 42 63 z "},"?":{"ha":561,"x_min":0,"x_max":0,"o":"m 188 354 l 188 217 l 257 217 l 257 354 b 533 735 257 443 533 493 b 240 994 533 901 428 994 b 14 917 135 994 58 964 l 65 871 b 240 933 100 910 160 933 b 464 735 383 933 464 863 b 188 354 464 511 188 493 z m 182 40 b 222 0 182 17 199 0 b 261 40 244 0 261 17 b 222 79 261 63 244 79 b 182 40 199 79 182 63 z "},"*":{"ha":274,"x_min":0,"x_max":0,"o":"m 111 972 l 111 922 l 76 957 l 43 924 l 81 886 l 28 886 l 28 840 l 81 840 l 43 803 l 76 769 l 111 804 l 111 754 l 163 754 l 163 804 l 197 769 l 231 803 l 193 840 l 246 840 l 246 886 l 193 886 l 231 924 l 197 957 l 163 922 l 163 972 z "},"#":{"ha":797,"x_min":0,"x_max":0,"o":"m 296 972 l 213 661 l 121 661 l 104 600 l 196 600 l 136 374 l 44 374 l 28 313 l 119 313 l 36 0 l 106 0 l 189 313 l 515 313 l 432 0 l 501 0 l 585 313 l 676 313 l 693 374 l 601 374 l 661 600 l 753 600 l 769 661 l 678 661 l 761 972 l 692 972 l 608 661 l 282 661 l 365 972 z m 206 374 l 265 600 l 592 600 l 532 374 z "},"/":{"ha":417,"x_min":0,"x_max":0,"o":"m 331 972 l 14 -110 l 86 -110 l 403 972 z "},"\\":{"ha":417,"x_min":0,"x_max":0,"o":"m 86 972 l 14 972 l 331 -110 l 403 -110 z "},"-":{"ha":457,"x_min":0,"x_max":0,"o":"m 429 539 l 28 539 l 28 478 l 429 478 z "},"_":{"ha":346,"x_min":0,"x_max":0,"o":"m 318 -22 l 28 -22 l 28 -83 l 318 -83 z "},"(":{"ha":292,"x_min":0,"x_max":0,"o":"m 28 486 b 233 -72 28 176 172 -29 l 278 -22 b 97 486 232 11 97 176 b 278 994 97 796 232 961 l 233 1044 b 28 486 172 1001 28 796 z "},")":{"ha":292,"x_min":0,"x_max":0,"o":"m 264 486 b 58 1044 264 796 119 1001 l 14 994 b 194 486 60 961 194 796 b 14 -22 194 176 60 11 l 58 -72 b 264 486 119 -29 264 176 z "},"{":{"ha":292,"x_min":0,"x_max":0,"o":"m 28 517 l 28 456 b 94 242 131 414 94 361 b 233 -72 94 153 115 46 l 278 -22 b 164 231 183 61 164 150 b 97 482 164 347 201 444 l 97 490 b 164 742 201 528 164 624 b 278 994 164 822 183 911 l 233 1044 b 94 731 115 926 94 819 b 28 517 94 611 131 558 z "},"}":{"ha":292,"x_min":0,"x_max":0,"o":"m 264 456 l 264 517 b 197 731 161 558 197 611 b 58 1044 197 819 176 926 l 14 994 b 128 742 108 911 128 822 b 194 490 128 624 90 528 l 194 482 b 128 231 90 444 128 347 b 14 -22 128 150 108 61 l 58 -72 b 197 242 176 46 197 153 b 264 456 197 361 161 414 z "},"[":{"ha":240,"x_min":0,"x_max":0,"o":"m 42 1056 l 42 -83 l 226 -83 l 226 -22 l 111 -22 l 111 994 l 226 994 l 226 1056 z "},"]":{"ha":240,"x_min":0,"x_max":0,"o":"m 199 1056 l 14 1056 l 14 994 l 129 994 l 129 -22 l 14 -22 l 14 -83 l 199 -83 z "},"‚":{"ha":151,"x_min":0,"x_max":0,"o":"m 28 -72 l 32 -81 b 124 18 64 -81 124 -24 b 85 57 124 40 107 57 b 44 18 61 57 44 40 b 61 -36 44 -10 61 -18 b 28 -72 61 -62 40 -69 z "},"„":{"ha":239,"x_min":0,"x_max":0,"o":"m 28 -72 l 32 -81 b 124 18 64 -81 124 -24 b 85 57 124 40 107 57 b 44 18 61 57 44 40 b 61 -36 44 -10 61 -18 b 28 -72 61 -62 40 -69 z m 115 -72 l 119 -81 b 211 18 151 -81 211 -24 b 172 57 211 40 194 57 b 132 18 149 57 132 40 b 149 -36 132 -10 149 -18 b 115 -72 149 -62 128 -69 z "},"“":{"ha":239,"x_min":0,"x_max":0,"o":"m 211 994 l 207 1003 b 115 904 175 1003 115 946 b 154 865 115 882 132 865 b 194 904 178 865 194 882 b 178 958 194 932 178 940 b 211 994 178 985 199 992 z m 28 904 b 67 865 28 882 44 865 b 107 904 90 865 107 882 b 90 958 107 932 90 940 b 124 994 90 985 111 992 l 119 1003 b 28 904 88 1003 28 946 z "},"”":{"ha":239,"x_min":0,"x_max":0,"o":"m 28 874 l 32 865 b 124 964 64 865 124 922 b 85 1003 124 986 107 1003 b 44 964 61 1003 44 986 b 61 910 44 936 61 928 b 28 874 61 883 40 876 z m 115 874 l 119 865 b 211 964 151 865 211 922 b 172 1003 211 986 194 1003 b 132 964 149 1003 132 986 b 149 910 132 936 149 928 b 115 874 149 883 128 876 z "},"‘":{"ha":151,"x_min":0,"x_max":0,"o":"m 124 994 l 119 1003 b 28 904 88 1003 28 946 b 67 865 28 882 44 865 b 107 904 90 865 107 882 b 90 958 107 932 90 940 b 124 994 90 985 111 992 z "},"’":{"ha":151,"x_min":0,"x_max":0,"o":"m 28 874 l 32 865 b 124 964 64 865 124 922 b 85 1003 124 986 107 1003 b 44 964 61 1003 44 986 b 61 910 44 936 61 928 b 28 874 61 883 40 876 z "},"«":{"ha":471,"x_min":0,"x_max":0,"o":"m 28 474 l 28 404 l 242 100 l 292 135 l 78 439 l 292 743 l 242 778 z m 179 404 l 393 100 l 443 135 l 229 439 l 443 743 l 393 778 l 179 474 z "},"»":{"ha":471,"x_min":0,"x_max":0,"o":"m 443 474 l 229 778 l 179 743 l 393 439 l 179 135 l 229 100 l 443 404 z m 28 135 l 78 100 l 292 404 l 292 474 l 78 778 l 28 743 l 242 439 z "},"‹":{"ha":319,"x_min":0,"x_max":0,"o":"m 28 474 l 28 404 l 242 100 l 292 135 l 78 439 l 292 743 l 242 778 z "},"›":{"ha":319,"x_min":0,"x_max":0,"o":"m 292 474 l 78 778 l 28 743 l 242 439 l 28 135 l 78 100 l 292 404 z "},"\"":{"ha":232,"x_min":0,"x_max":0,"o":"m 121 972 l 147 804 l 168 804 l 190 972 z m 42 972 l 68 804 l 89 804 l 111 972 z "},"'":{"ha":153,"x_min":0,"x_max":0,"o":"m 42 972 l 68 804 l 89 804 l 111 972 z "},"@":{"ha":1067,"x_min":0,"x_max":0,"o":"m 539 165 l 1039 165 l 1039 486 b 533 994 1039 767 813 994 b 28 486 254 994 28 767 b 533 -22 28 206 254 -22 b 846 86 651 -22 760 18 l 807 133 b 536 36 732 72 639 36 b 94 486 289 36 94 239 b 536 936 94 735 289 936 b 972 486 778 936 972 735 l 972 224 l 813 224 l 813 625 b 536 882 813 790 714 882 b 321 801 440 882 367 854 l 369 757 b 536 824 403 800 460 824 b 746 625 671 824 746 753 l 746 600 b 539 679 703 651 635 679 b 263 422 361 679 263 588 b 539 165 263 257 361 165 z m 329 422 b 539 621 329 550 404 621 b 746 422 672 621 746 550 l 746 224 l 539 224 b 329 422 404 224 329 294 z "},"&":{"ha":625,"x_min":0,"x_max":0,"o":"m 318 933 b 486 814 426 933 486 890 b 318 694 486 738 426 694 b 178 671 264 694 217 686 b 150 796 158 718 150 756 b 318 933 150 872 210 933 z m 28 238 b 318 -22 28 71 131 -22 b 510 24 397 -22 461 -7 b 558 -49 525 0 542 -24 l 600 4 b 558 67 586 26 572 47 b 611 238 593 108 611 165 l 611 382 l 542 382 l 542 238 b 517 131 542 194 533 160 b 206 614 356 374 258 514 b 318 633 238 626 275 633 b 556 814 471 633 556 699 b 318 994 556 929 471 994 b 81 796 165 994 81 911 b 118 639 81 747 90 700 b 28 435 58 596 28 526 z m 97 238 l 97 435 b 149 576 97 496 115 543 b 472 79 207 469 307 322 b 318 39 435 53 382 39 b 97 238 175 39 97 110 z "},"|":{"ha":153,"x_min":0,"x_max":0,"o":"m 42 972 l 42 -110 l 111 -110 l 111 972 z "},"¢":{"ha":533,"x_min":0,"x_max":0,"o":"m 471 726 l 519 771 b 317 851 475 821 407 849 l 317 1026 l 247 1026 l 247 849 b 28 594 106 829 28 742 l 28 369 b 247 115 28 222 106 135 l 247 -56 l 317 -56 l 317 113 b 519 193 407 115 475 143 l 471 238 b 317 171 438 197 386 174 l 317 793 b 471 726 386 790 439 767 z m 94 369 l 94 594 b 247 789 94 703 149 771 l 247 175 b 94 369 149 193 94 261 z "},"$":{"ha":586,"x_min":0,"x_max":0,"o":"m 247 1026 l 247 994 b 28 782 113 988 28 907 b 247 517 28 656 136 585 l 247 39 b 90 101 176 43 122 65 l 39 56 b 247 -22 81 11 151 -18 l 247 -56 l 317 -56 l 317 -19 b 558 238 472 -4 558 86 b 317 550 558 394 436 478 l 317 929 b 440 872 371 922 414 903 l 493 917 b 317 992 456 956 396 983 l 317 1026 z m 97 782 b 247 933 97 869 156 926 l 247 593 b 97 782 164 647 97 701 z m 317 42 l 317 474 b 489 238 410 414 489 347 b 317 42 489 126 428 58 z "},"€":{"ha":625,"x_min":0,"x_max":0,"o":"m 386 -22 b 611 56 486 -22 563 4 l 561 101 b 386 39 524 60 464 39 b 163 238 243 39 163 110 l 163 428 l 425 428 l 425 489 l 163 489 l 163 538 l 425 538 l 425 599 l 163 599 l 163 735 b 386 933 163 863 243 933 b 561 871 464 933 524 913 l 611 917 b 386 994 563 968 486 994 b 93 735 199 994 93 901 l 93 599 l 28 599 l 28 538 l 93 538 l 93 489 l 28 489 l 28 428 l 93 428 l 93 238 b 386 -22 93 71 199 -22 z "},"¥":{"ha":611,"x_min":0,"x_max":0,"o":"m 528 972 l 528 893 b 307 694 528 765 449 694 b 83 893 164 694 83 765 l 83 972 l 14 972 l 14 893 b 271 635 14 738 106 646 l 271 599 l 107 599 l 107 538 l 271 538 l 271 489 l 107 489 l 107 428 l 271 428 l 271 0 l 340 0 l 340 428 l 504 428 l 504 489 l 340 489 l 340 538 l 504 538 l 504 599 l 340 599 l 340 635 b 597 893 506 644 597 736 l 597 972 z "},"+":{"ha":453,"x_min":0,"x_max":0,"o":"m 425 517 l 261 517 l 261 681 l 192 681 l 192 517 l 28 517 l 28 456 l 192 456 l 192 283 l 261 283 l 261 456 l 425 456 z "},"−":{"ha":453,"x_min":0,"x_max":0,"o":"m 425 517 l 28 517 l 28 456 l 425 456 z "},"×":{"ha":381,"x_min":0,"x_max":0,"o":"m 353 367 l 233 486 l 353 606 l 310 649 l 190 529 l 71 649 l 28 606 l 147 486 l 28 367 l 71 324 l 190 443 l 310 324 z "},"÷":{"ha":519,"x_min":0,"x_max":0,"o":"m 492 539 l 28 539 l 28 478 l 492 478 z m 199 311 b 261 249 199 274 224 249 b 322 311 297 249 322 274 b 261 372 322 347 297 372 b 199 311 224 372 199 347 z m 199 707 b 261 644 199 669 224 644 b 322 707 297 644 322 669 b 261 768 322 743 297 768 b 199 707 224 768 199 743 z "},"=":{"ha":457,"x_min":0,"x_max":0,"o":"m 429 599 l 28 599 l 28 538 l 429 538 z m 28 428 l 429 428 l 429 489 l 28 489 z "},">":{"ha":319,"x_min":0,"x_max":0,"o":"m 292 474 l 78 778 l 28 743 l 242 439 l 28 135 l 78 100 l 292 404 z "},"<":{"ha":319,"x_min":0,"x_max":0,"o":"m 28 474 l 28 404 l 242 100 l 292 135 l 78 439 l 292 743 l 242 778 z "},"^":{"ha":403,"x_min":0,"x_max":0,"o":"m 244 976 l 158 976 l 28 846 l 71 803 l 201 933 l 332 803 l 375 846 z "},"%":{"ha":560,"x_min":0,"x_max":0,"o":"m 460 972 l 28 0 l 100 0 l 532 972 z m 28 733 b 160 603 28 657 83 603 b 286 733 232 603 286 657 b 160 861 286 807 232 861 b 28 733 83 861 28 807 z m 97 732 b 158 792 97 767 122 792 b 217 732 192 792 217 767 b 158 672 217 697 192 672 b 97 732 122 672 97 697 z m 274 242 b 406 111 274 165 329 111 b 532 242 478 111 532 165 b 406 369 532 315 478 369 b 274 242 329 369 274 315 z m 343 240 b 404 300 343 275 368 300 b 463 240 438 300 463 275 b 404 181 463 206 438 181 b 343 240 368 181 343 206 z "},"̈":{"ha":0,"x_min":0,"x_max":0,"o":"m 72 782 b 117 826 96 782 117 803 b 72 871 117 850 96 871 b 28 826 49 871 28 850 b 72 782 28 803 49 782 z m 142 826 b 186 782 142 803 163 782 b 231 826 210 782 231 803 b 186 871 231 850 210 871 b 142 826 163 871 142 850 z "},"̇":{"ha":0,"x_min":0,"x_max":0,"o":"m 72 782 b 117 826 96 782 117 803 b 72 871 117 850 96 871 b 28 826 49 871 28 850 b 72 782 28 803 49 782 z "},"̀":{"ha":0,"x_min":0,"x_max":0,"o":"m 28 854 l 136 751 l 151 765 l 94 901 z "},"́":{"ha":0,"x_min":0,"x_max":0,"o":"m 151 854 l 85 901 l 28 765 l 43 751 z "},"̂":{"ha":0,"x_min":0,"x_max":0,"o":"m 138 808 l 225 760 l 247 760 l 149 894 l 126 894 l 28 760 l 50 760 z "},"̊":{"ha":0,"x_min":0,"x_max":0,"o":"m 104 747 b 181 824 146 747 181 782 b 104 900 181 865 146 900 b 28 824 63 900 28 865 b 104 747 28 782 63 747 z m 72 824 b 104 856 72 840 86 856 b 136 824 122 856 136 840 b 104 792 136 806 122 792 b 72 824 86 792 72 806 z "},"̃":{"ha":0,"x_min":0,"x_max":0,"o":"m 85 856 l 28 856 b 82 778 28 813 49 778 b 156 804 108 778 139 804 b 172 781 168 804 172 797 l 231 781 b 185 854 231 829 211 854 b 101 832 149 854 124 832 b 85 856 90 832 85 839 z "},"̧":{"ha":0,"x_min":0,"x_max":0,"o":"m 58 -142 l 28 -171 b 75 -190 43 -183 60 -190 b 147 -118 117 -190 147 -164 b 75 -47 147 -72 121 -47 l 75 0 l 32 0 l 32 -62 l 58 -94 b 75 -89 64 -90 69 -89 b 106 -118 94 -89 106 -100 b 75 -149 106 -137 94 -149 b 58 -142 71 -149 64 -146 z "}}}
